<?xml version="1.0" encoding="UTF-8" standalone="no"?>
<!DOCTYPE svg PUBLIC "-//W3C//DTD SVG 1.1//EN" "http://www.w3.org/Graphics/SVG/1.1/DTD/svg11.dtd">
<svg width="100%" height="100%" viewBox="0 0 1024 1024" version="1.1" xmlns="http://www.w3.org/2000/svg" xmlns:xlink="http://www.w3.org/1999/xlink" xml:space="preserve" xmlns:serif="http://www.serif.com/" style="fill-rule:evenodd;clip-rule:evenodd;stroke-linejoin:round;stroke-miterlimit:2;">
    <g transform="matrix(2.795974,0,0,2.636084,-236.716948,55.685395)">
        <path d="M158.956,258.787L108.112,227.651L137.375,173.891L159.362,187.355C160.044,183.156 163.261,179.871 167.28,179.341L163.641,175.479L190.609,150.524C196.486,135.727 201.902,123.595 205.781,115.293L205.968,112.957C199.746,94.355 190.269,62.819 194.344,54.225C194.467,53.967 194.598,53.718 194.739,53.477C188.432,52.307 182.499,46.355 179.788,37.957C161.674,41.42 148.597,41.564 147.623,37.71C146.745,34.232 155.943,28.344 170.481,22.371C176.705,1.595 171.214,-14.696 174.591,-13.603C184.66,-10.342 196.964,-14.13 202.502,-20.809C204.49,-23.206 207.252,-10.641 224.847,6.737C241.098,3.921 252.55,4.035 253.458,7.632C254.214,10.626 247.509,15.403 236.359,20.484C238.135,21.31 239.763,22.078 241.075,22.717C243.71,24.001 249.725,22.215 250.954,22.969C252.981,24.214 256.692,33.875 256.692,33.875C256.692,33.875 252.699,30.412 249.387,31.261C246.784,31.929 244.387,33.994 243.234,33.939C241.507,33.856 236.328,30.925 236.328,30.925C236.328,30.925 238.246,33.631 239.502,36.077C240.5,38.021 244.973,38.851 245.333,40.06C245.923,42.046 245.335,46.543 245.335,46.543C245.335,46.543 241.365,43.501 239.729,42.707C237.934,41.837 235.62,43.933 234.485,43.736C232.623,43.413 229.563,41.442 229.563,41.442C229.563,41.442 228.991,43.831 230.217,45.852C231.312,47.657 234.194,49.042 234.595,50.183C235.206,51.92 234.667,55.959 234.667,55.959C234.625,55.854 233.294,52.964 230.411,52.098C226.573,50.946 225.434,53.062 223.625,52.089C223.152,51.835 222.187,51.588 220.921,51.355C226.902,53.936 232.324,57.819 235.313,62.207C235.54,62.539 235.762,62.901 235.979,63.289C281.291,91.47 317.663,99.619 324.64,95.146C327.469,93.333 336.222,100.117 336.222,100.117C336.222,100.117 325.888,106.788 317.663,105.834C312.339,105.216 313.568,128.123 313.568,128.123C313.568,128.123 294.81,129.137 278.253,111.484C277.937,111.147 267.666,122.3 260.649,129.999C260.959,130.505 261.279,131.02 261.608,131.544C271.944,148.02 283.427,153.802 293.142,155.938C300.192,157.488 346.959,153.053 404.239,187.977C440.637,210.17 435.633,247.41 411.74,267.067C399.222,277.366 339.819,292.068 344.615,283.64C366.114,245.856 340.773,284.255 290.906,294.612C293.238,296.588 295.269,298.393 296.193,299.428C299.16,302.749 303.133,310.032 303.133,310.032L308.726,316.295L297.086,328.662L292.529,324.711C292.529,324.711 286.602,326.952 285.631,336.326C284.884,343.536 262.462,368.719 260.62,367.32C257.76,365.149 257.008,351.477 257.753,349.11C259.18,344.581 268.513,329.917 270.693,315.837C271.81,308.621 270.326,302.558 269.605,300.201L266.07,297.019C264.552,296.997 263.019,296.944 261.471,296.857C242.702,295.805 222.254,302.612 204.351,310.825C201.945,315.83 199.77,319.847 198.167,322.657C198.884,328.412 199.928,337.412 199.855,340.424C199.741,345.113 197.734,353.45 197.734,353.45L197.519,362.294L181.362,362.309L180.785,355.939C180.785,355.939 175.21,353.006 168.409,359.056C163.177,363.709 131.166,364.726 130.803,362.294C130.239,358.52 138.656,348.028 140.72,346.885C144.67,344.698 160.728,341.242 171.445,332.709C175.059,329.831 177.566,326.449 179.155,323.827C164.882,331.842 155.436,337.88 155.166,335.294C152.588,310.648 154.526,284.416 158.956,258.787ZM210.87,30.039C210.881,30.107 210.891,30.176 210.901,30.244L211.007,29.996C210.962,30.01 210.916,30.024 210.87,30.039Z"/>
    </g>
</svg>
